<svg width="101" height="19" viewBox="0 0 101 19" fill="none" xmlns="http://www.w3.org/2000/svg">
<path d="M4.475 1.075L4.55 1H10.825H17.1L17.2 1.075C17.25 1.14167 17.275 1.20833 17.275 1.275L16.45 7.1C16.4 7.15 16.3667 7.18333 16.35 7.2C16.3167 7.23333 16.1333 7.25 15.8 7.25C15.45 7.25 15.25 7.23333 15.2 7.2C15.1167 7.15 15.0917 6.96667 15.125 6.65C15.125 6.61667 15.125 6.575 15.125 6.525C15.3083 5.225 15.3333 4.3 15.2 3.75C15.1333 3.48333 15.025 3.26667 14.875 3.1C14.6083 2.8 14.15 2.6 13.5 2.5C13.1 2.43333 12.225 2.4 10.875 2.4C9.75833 2.41667 9.175 2.45833 9.125 2.525C9.09167 2.54167 8.81667 3.58333 8.3 5.65C7.78333 7.71667 7.525 8.75833 7.525 8.775C7.525 8.84167 8.20833 8.84167 9.575 8.775C9.725 8.775 9.825 8.76667 9.875 8.75C10.5417 8.6 11.0167 8.25833 11.3 7.725C11.45 7.425 11.6 7 11.75 6.45C11.8 6.23333 11.85 6.075 11.9 5.975C11.95 5.90833 12.1667 5.875 12.55 5.875C12.9333 5.875 13.15 5.93333 13.2 6.05L13.25 6.125L12.4 9.5C11.8667 11.7167 11.575 12.875 11.525 12.975C11.4917 13.075 11.2667 13.125 10.85 13.125C10.4667 13.125 10.25 13.0667 10.2 12.95C10.1667 12.9 10.175 12.75 10.225 12.5C10.3583 11.9833 10.425 11.5583 10.425 11.225C10.4417 10.9083 10.3917 10.6917 10.275 10.575C10.1583 10.425 9.95833 10.325 9.675 10.275C9.54167 10.2417 9.08333 10.2167 8.3 10.2H7.175L6.4 13.3C5.86667 15.4333 5.6 16.475 5.6 16.425C5.58333 16.475 5.7 16.5167 5.95 16.55C6.21667 16.5667 6.66667 16.5833 7.3 16.6H8.275L8.35 16.7C8.4 16.75 8.425 16.8 8.425 16.85L8.175 17.825V17.85C8.125 17.95 7.96667 17.9917 7.7 17.975C7.6 17.975 7.375 17.975 7.025 17.975C5.54167 17.9083 3.76667 17.9 1.7 17.95C1.5 17.9667 1.34167 17.975 1.225 17.975C0.675 17.9917 0.366667 17.9417 0.3 17.825C0.266667 17.775 0.291667 17.5833 0.375 17.25C0.458333 16.9 0.525 16.7083 0.575 16.675L0.65 16.6H1.45C2.21667 16.5833 2.65 16.55 2.75 16.5C2.83333 16.45 2.9 16.35 2.95 16.2C3.06667 15.8833 3.64167 13.625 4.675 9.425C5.825 4.825 6.39167 2.525 6.375 2.525C6.29167 2.44167 5.79167 2.4 4.875 2.4C4.475 2.4 4.25 2.34167 4.2 2.225C4.16667 2.175 4.19167 1.98333 4.275 1.65C4.35833 1.3 4.425 1.10833 4.475 1.075ZM22.283 1.65C22.883 1.5 23.3163 1.65 23.583 2.1C23.6663 2.25 23.7163 2.41667 23.733 2.6C23.733 2.85 23.6747 3.09167 23.558 3.325C23.1747 3.85833 22.6913 4.16667 22.108 4.25C21.9247 4.25 21.733 4.2 21.533 4.1C21.3663 4.01667 21.233 3.86667 21.133 3.65C21.083 3.58333 21.0497 3.45 21.033 3.25C21.033 2.98333 21.083 2.75 21.183 2.55C21.4163 2.08333 21.783 1.78333 22.283 1.65ZM20.133 7C20.2497 6.96667 20.433 6.95 20.683 6.95C21.0663 6.96667 21.3997 7.05 21.683 7.2C21.8997 7.31667 22.0663 7.44167 22.183 7.575C22.3163 7.69167 22.4413 7.85833 22.558 8.075C22.708 8.39167 22.7747 8.725 22.758 9.075C22.758 9.35833 22.7413 9.55833 22.708 9.675C22.6913 9.70833 22.3163 10.75 21.583 12.8C20.883 14.6667 20.508 15.7 20.458 15.9C20.2913 16.45 20.2663 16.8167 20.383 17C20.4663 17.1 20.6413 17.1167 20.908 17.05C21.558 16.9 22.083 16.0917 22.483 14.625C22.5663 14.3583 22.6497 14.2167 22.733 14.2C22.783 14.1833 22.958 14.175 23.258 14.175C23.6247 14.175 23.8247 14.1917 23.858 14.225C23.958 14.2917 23.958 14.4667 23.858 14.75C23.6747 15.4 23.3997 16.0083 23.033 16.575C22.3663 17.575 21.608 18.1333 20.758 18.25C20.458 18.3167 20.1497 18.3 19.833 18.2C19.4997 18.1 19.2247 17.975 19.008 17.825C18.6413 17.525 18.3997 17.1 18.283 16.55C18.2163 16.2333 18.233 15.9 18.333 15.55C18.3663 15.4167 18.733 14.3917 19.433 12.475C20.033 10.875 20.4163 9.825 20.583 9.325C20.7497 8.80833 20.7747 8.45 20.658 8.25C20.608 8.11667 20.433 8.09167 20.133 8.175C19.633 8.29167 19.1913 8.81667 18.808 9.75C18.5913 10.5 18.483 10.8583 18.483 10.825C18.433 10.925 18.3997 10.9833 18.383 11C18.3497 11.0333 18.1497 11.05 17.783 11.05H17.233L17.158 10.975C17.108 10.925 17.083 10.8583 17.083 10.775C17.1163 10.5083 17.258 10.0917 17.508 9.525C17.708 9.09167 17.9163 8.73333 18.133 8.45C18.3497 8.15 18.6247 7.85 18.958 7.55C19.3247 7.26667 19.7163 7.08333 20.133 7ZM27.249 7C27.5324 6.91667 27.8907 6.925 28.324 7.025C28.724 7.125 29.0657 7.30833 29.349 7.575C29.599 7.825 29.7657 8.06667 29.849 8.3L29.949 8.5L30.149 8.325C30.8657 7.60833 31.6824 7.175 32.599 7.025C33.199 6.90833 33.749 6.91667 34.249 7.05C34.899 7.18333 35.3907 7.46667 35.724 7.9C35.9074 8.13333 36.0574 8.44167 36.174 8.825C36.2074 8.975 36.224 9.25 36.224 9.65C36.224 10.0833 36.2157 10.3583 36.199 10.475C36.0157 11.425 35.5657 12.9 34.849 14.9C34.5824 15.6167 34.424 16.1083 34.374 16.375C34.324 16.7917 34.374 17.025 34.524 17.075C34.724 17.1417 34.9574 17.1 35.224 16.95C35.7407 16.6333 36.174 15.8583 36.524 14.625C36.6074 14.3583 36.6907 14.2167 36.774 14.2C36.824 14.1833 36.999 14.175 37.299 14.175C37.6657 14.175 37.8657 14.1917 37.899 14.225C37.999 14.2917 37.999 14.4667 37.899 14.75C37.7157 15.4 37.4407 16.0083 37.074 16.575C36.4074 17.575 35.649 18.1333 34.799 18.25C34.499 18.3167 34.1907 18.3 33.874 18.2C33.3907 18.1 33.024 17.875 32.774 17.525C32.4574 17.1417 32.299 16.6917 32.299 16.175C32.299 15.8583 32.424 15.3417 32.674 14.625C33.4907 12.425 33.949 10.8667 34.049 9.95C34.1157 9.55 34.1074 9.175 34.024 8.825C33.9074 8.49167 33.7407 8.28333 33.524 8.2C33.3574 8.11667 33.099 8.1 32.749 8.15C31.649 8.31667 30.699 9.15 29.899 10.65L29.699 11L28.899 14.175C28.3657 16.325 28.074 17.4417 28.024 17.525C27.8074 17.9583 27.449 18.2083 26.949 18.275C26.8157 18.2917 26.6907 18.2833 26.574 18.25C26.1574 18.1333 25.9324 17.875 25.899 17.475C25.899 17.325 26.2157 15.975 26.849 13.425C27.499 10.9083 27.8407 9.53333 27.874 9.3C27.924 8.86667 27.9074 8.55 27.824 8.35C27.7574 8.23333 27.649 8.15833 27.499 8.125C27.399 8.125 27.3157 8.15 27.249 8.2C26.999 8.35 26.7657 8.75833 26.549 9.425C26.4657 9.65833 26.3324 10.125 26.149 10.825C26.099 10.925 26.0657 10.9833 26.049 11C26.0157 11.0333 25.8157 11.05 25.449 11.05H24.899L24.824 10.975C24.774 10.925 24.749 10.8583 24.749 10.775L24.899 10.2C25.3157 8.75 25.849 7.79167 26.499 7.325C26.7657 7.15833 27.0157 7.05 27.249 7ZM49.1121 0.799999C50.4121 0.7 51.0538 0.65 51.0371 0.65C51.1871 0.65 51.2871 0.708333 51.3371 0.824999C51.3538 0.891666 50.7538 3.375 49.5371 8.275L47.6371 15.875C47.6038 16.2583 47.6038 16.5667 47.6371 16.8C47.6704 16.8833 47.7204 16.95 47.7871 17C47.8371 17.05 47.9121 17.075 48.0121 17.075C48.1288 17.075 48.2204 17.0583 48.2871 17.025C48.6038 16.7917 48.9288 16.0333 49.2621 14.75C49.3454 14.4333 49.4121 14.2583 49.4621 14.225C49.4954 14.1917 49.6954 14.175 50.0621 14.175C50.4288 14.175 50.6371 14.1917 50.6871 14.225C50.7204 14.2583 50.7371 14.325 50.7371 14.425C50.7371 14.525 50.6954 14.725 50.6121 15.025C49.9954 17.125 49.1204 18.2083 47.9871 18.275C47.1371 18.325 46.4538 18.0333 45.9371 17.4C45.8538 17.3 45.7788 17.1917 45.7121 17.075C45.6788 16.975 45.6538 16.925 45.6371 16.925L45.4621 17.075C44.8788 17.5917 44.3038 17.9333 43.7371 18.1C42.6538 18.4667 41.6788 18.3 40.8121 17.6C40.7121 17.5167 40.6204 17.425 40.5371 17.325C40.2871 17.075 40.0788 16.775 39.9121 16.425C39.4954 15.575 39.3621 14.5667 39.5121 13.4C39.7788 11.5 40.5871 9.9 41.9371 8.6C42.8038 7.76667 43.7454 7.24167 44.7621 7.025C44.9121 6.99167 45.1454 6.975 45.4621 6.975C45.8788 6.975 46.2371 7.04167 46.5371 7.175C46.7704 7.29167 46.9871 7.45 47.1871 7.65C47.3204 7.78333 47.3871 7.83333 47.3871 7.8C47.4038 7.78333 47.6121 6.98333 48.0121 5.4C48.3954 3.85 48.5954 2.98333 48.6121 2.8C48.6121 2.65 48.5954 2.55833 48.5621 2.525C48.4454 2.40833 48.0871 2.34167 47.4871 2.325C47.0871 2.325 46.8538 2.26667 46.7871 2.15L46.7621 2.075L46.8871 1.575C46.9538 1.25833 47.0204 1.06667 47.0871 1C47.1371 0.949999 47.1871 0.924999 47.2371 0.924999L49.1121 0.799999ZM45.5621 8.15C44.8788 8.03333 44.2204 8.35833 43.5871 9.125C43.4204 9.34167 43.2704 9.575 43.1371 9.825C42.8871 10.3083 42.5871 11.2583 42.2371 12.675C42.0204 13.475 41.8621 14.175 41.7621 14.775C41.6954 15.3417 41.6954 15.775 41.7621 16.075C41.9288 16.6583 42.2538 16.9917 42.7371 17.075C43.0204 17.125 43.3621 17.0667 43.7621 16.9C44.3621 16.5667 44.9288 16.0083 45.4621 15.225L45.5871 15.05L46.2121 12.55L46.8371 10.05L46.7871 9.875C46.6371 8.925 46.2704 8.35833 45.6871 8.175C45.6538 8.15833 45.6121 8.15 45.5621 8.15ZM55.3057 1L55.3807 0.924999H59.6557C62.589 0.924999 64.1057 0.933333 64.2057 0.949999C65.639 1.1 66.7057 1.68333 67.4057 2.7C68.1723 3.9 68.2223 5.25 67.5557 6.75C67.4557 6.96667 67.3473 7.175 67.2307 7.375C66.714 8.19167 66.0557 8.875 65.2557 9.425C64.2223 10.1417 63.114 10.5667 61.9307 10.7C61.8307 10.7167 61.1057 10.725 59.7557 10.725H57.8307L57.1307 13.6C56.6307 15.5167 56.3973 16.475 56.4307 16.475C56.514 16.5583 57.0223 16.6 57.9557 16.6H58.4557L58.5557 16.675C58.6057 16.7417 58.6307 16.8083 58.6307 16.875C58.6307 17.1417 58.5473 17.4667 58.3807 17.85C58.3307 17.95 58.1557 17.9917 57.8557 17.975C57.789 17.975 57.6473 17.975 57.4307 17.975C54.9473 17.9083 52.9807 17.9167 51.5307 18H51.2557L51.1807 17.925C51.114 17.8583 51.0807 17.7917 51.0807 17.725C51.0807 17.4583 51.164 17.1333 51.3307 16.75C51.5307 16.65 51.8473 16.6 52.2807 16.6C53.0307 16.5833 53.4557 16.55 53.5557 16.5C53.639 16.45 53.7057 16.35 53.7557 16.2C53.8723 15.8667 54.4473 13.6167 55.4807 9.45C56.6307 4.85 57.2057 2.53333 57.2057 2.5C57.2057 2.45 57.189 2.425 57.1557 2.425C57.0557 2.39167 56.664 2.35833 55.9807 2.325C55.3973 2.325 55.0723 2.26667 55.0057 2.15C54.989 2.1 55.014 1.90833 55.0807 1.575C55.164 1.25833 55.239 1.06667 55.3057 1ZM63.5807 2.4C63.3973 2.36667 62.8057 2.34167 61.8057 2.325C60.7557 2.325 60.1557 2.34167 60.0057 2.375C59.9223 2.40833 59.8723 2.44167 59.8557 2.475C59.839 2.49167 59.539 3.65 58.9557 5.95C58.3723 8.23333 58.0807 9.38333 58.0807 9.4C58.0807 9.43333 58.589 9.45 59.6057 9.45C60.7057 9.45 61.314 9.44167 61.4307 9.425C62.6307 9.325 63.5057 8.89167 64.0557 8.125C64.3223 7.725 64.5973 6.98333 64.8807 5.9C65.0807 5.1 65.1807 4.49167 65.1807 4.075C65.1973 3.60833 65.0723 3.23333 64.8057 2.95C64.5057 2.66667 64.0973 2.48333 63.5807 2.4ZM70.999 7C71.2824 6.91667 71.6407 6.925 72.074 7.025C72.3407 7.09167 72.6074 7.21667 72.874 7.4C73.1407 7.6 73.3324 7.80833 73.449 8.025L73.549 8.175L73.774 7.95C74.0907 7.66667 74.4074 7.44167 74.724 7.275C75.324 6.975 75.9407 6.875 76.574 6.975C77.6907 7.15833 78.3907 7.68333 78.674 8.55C78.7574 8.8 78.7907 9.06667 78.774 9.35C78.724 9.98333 78.5074 10.45 78.124 10.75C77.5574 11.1667 77.0324 11.2417 76.549 10.975C76.349 10.875 76.2074 10.725 76.124 10.525C76.074 10.4417 76.0407 10.3083 76.024 10.125C76.024 9.84167 76.0824 9.58333 76.199 9.35C76.3824 9.01667 76.6074 8.79167 76.874 8.675C76.974 8.625 77.024 8.58333 77.024 8.55C76.974 8.45 76.8157 8.35 76.549 8.25C76.199 8.1 75.8324 8.08333 75.449 8.2C74.849 8.41667 74.274 9.06667 73.724 10.15C73.6574 10.2833 73.324 11.525 72.724 13.875C72.124 16.2917 71.774 17.575 71.674 17.725C71.6574 17.7583 71.6157 17.8083 71.549 17.875C71.199 18.225 70.7907 18.35 70.324 18.25C69.9074 18.1333 69.6824 17.875 69.649 17.475C69.649 17.325 69.9657 15.975 70.599 13.425C71.249 10.9083 71.5907 9.53333 71.624 9.3C71.674 8.86667 71.6574 8.55 71.574 8.35C71.5074 8.23333 71.399 8.15833 71.249 8.125C71.149 8.125 71.0657 8.15 70.999 8.2C70.8324 8.31667 70.674 8.51667 70.524 8.8C70.3574 9.2 70.149 9.875 69.899 10.825C69.849 10.925 69.8157 10.9833 69.799 11C69.7657 11.0333 69.5657 11.05 69.199 11.05H68.649L68.574 10.975C68.524 10.925 68.499 10.8583 68.499 10.775L68.649 10.175C69.0824 8.725 69.6157 7.775 70.249 7.325C70.5157 7.15833 70.7657 7.05 70.999 7ZM85.9459 6.975C85.9792 6.95833 86.1542 6.95 86.4709 6.95C86.9209 6.96667 87.3209 7.03333 87.6709 7.15C89.0542 7.61667 89.9126 8.625 90.2459 10.175C90.2792 10.375 90.2959 10.6917 90.2959 11.125C90.3126 11.675 90.2626 12.175 90.1459 12.625C89.9126 13.5583 89.5126 14.425 88.9459 15.225C87.9126 16.675 86.6209 17.625 85.0709 18.075C84.6542 18.1917 84.2459 18.2583 83.8459 18.275C82.4126 18.325 81.3126 17.8083 80.5459 16.725C80.4459 16.6083 80.3626 16.4833 80.2959 16.35C79.4959 14.9167 79.5209 13.2333 80.3709 11.3C80.7709 10.4333 81.3042 9.66667 81.9709 9C82.6042 8.36667 83.2626 7.89167 83.9459 7.575C84.6126 7.24167 85.2792 7.04167 85.9459 6.975ZM86.7209 8.175C86.3709 8.125 86.0876 8.11667 85.8709 8.15C85.0542 8.3 84.3792 8.7 83.8459 9.35C83.3626 9.93333 82.9459 10.9083 82.5959 12.275C82.5626 12.3917 82.5292 12.5083 82.4959 12.625C82.2292 13.725 82.0959 14.5417 82.0959 15.075C82.0959 15.425 82.1126 15.6583 82.1459 15.775C82.3459 16.5583 82.8292 16.9917 83.5959 17.075C83.9292 17.1083 84.2792 17.0667 84.6459 16.95C85.5292 16.6667 86.2292 16.025 86.7459 15.025C87.0292 14.5083 87.3126 13.6583 87.5959 12.475C87.9626 11.025 88.0626 9.99167 87.8959 9.375C87.7292 8.75833 87.3376 8.35833 86.7209 8.175ZM97.2895 7C98.4061 6.83333 99.2895 7.06667 99.9395 7.7C100.089 7.83333 100.206 7.99167 100.289 8.175C100.439 8.45833 100.514 8.76667 100.514 9.1C100.514 10 100.131 10.5417 99.3645 10.725C99.1645 10.775 98.9728 10.775 98.7895 10.725C98.3561 10.625 98.1228 10.3583 98.0895 9.925C98.0895 9.675 98.1395 9.44167 98.2395 9.225C98.4061 8.925 98.5811 8.73333 98.7645 8.65C98.8145 8.61667 98.8478 8.59167 98.8645 8.575C98.8645 8.50833 98.7061 8.4 98.3895 8.25C98.0228 8.1 97.6395 8.075 97.2395 8.175C96.6895 8.325 96.2978 8.70833 96.0645 9.325C95.9978 9.54167 95.9645 9.76667 95.9645 10C95.9978 10.2667 96.0811 10.475 96.2145 10.625C96.3311 10.7583 96.6478 10.8833 97.1645 11C97.7978 11.15 98.2145 11.275 98.4145 11.375C99.1145 11.725 99.5811 12.2667 99.8145 13C99.8978 13.2667 99.9395 13.6 99.9395 14C99.9228 14.35 99.8478 14.7417 99.7145 15.175C99.5811 15.575 99.3645 15.9917 99.0645 16.425C98.7645 16.8417 98.4228 17.1833 98.0395 17.45C97.4561 17.85 96.7811 18.1083 96.0145 18.225C95.5478 18.2917 95.0395 18.3 94.4895 18.25C94.4561 18.2333 94.4228 18.225 94.3895 18.225C93.4061 18.025 92.7311 17.6583 92.3645 17.125C92.1645 16.825 92.0478 16.5833 92.0145 16.4C91.9811 16.3 91.9645 16.125 91.9645 15.875C91.9478 15.5083 92.0145 15.1833 92.1645 14.9C92.3978 14.4 92.7978 14.1 93.3645 14C93.5311 13.9833 93.6728 13.9833 93.7895 14C94.3061 14.0833 94.6061 14.3583 94.6895 14.825C94.7728 15.325 94.5895 15.7917 94.1395 16.225C94.0395 16.3083 93.9395 16.375 93.8395 16.425L93.6645 16.525L93.8145 16.625C94.0978 16.8583 94.4478 17 94.8645 17.05C95.7145 17.1833 96.4311 17.025 97.0145 16.575C97.3811 16.275 97.6395 15.8583 97.7895 15.325C97.8228 15.075 97.8228 14.8333 97.7895 14.6C97.6728 14.2167 97.4061 13.9417 96.9895 13.775C96.7895 13.7083 96.5228 13.6417 96.1895 13.575C95.7728 13.4917 95.4895 13.4167 95.3395 13.35C94.6228 13.0833 94.1478 12.5417 93.9145 11.725C93.8811 11.575 93.8645 11.3333 93.8645 11C93.8645 10.6667 93.8811 10.4167 93.9145 10.25C94.1645 9.26667 94.6061 8.48333 95.2395 7.9C95.7895 7.4 96.4728 7.1 97.2895 7Z" fill="#4880EE"/>
</svg>
